<svg width="34" height="29" viewBox="0 0 34 29" fill="none" xmlns="http://www.w3.org/2000/svg">
<path d="M25.9991 8.2501C25.4581 7.69519 24.8123 7.2533 24.0991 6.9501C23.3839 6.64887 22.6151 6.49578 21.8391 6.5001C21.0687 6.49715 20.306 6.65377 19.5991 6.9601C18.8901 7.26102 18.2477 7.69947 17.7091 8.2501L16.9991 8.9801L16.2991 8.2501C15.7632 7.68923 15.1191 7.24282 14.4058 6.93783C13.6926 6.63283 12.9249 6.47559 12.1491 6.47559C11.3734 6.47559 10.6057 6.63283 9.89238 6.93783C9.1791 7.24282 8.53505 7.68923 7.99912 8.2501L7.67912 8.5701C6.57071 9.69299 5.94922 11.2073 5.94922 12.7851C5.94922 14.3629 6.57071 15.8772 7.67912 17.0001L15.9991 25.5001L16.9991 26.5001L17.8791 25.5501L26.2591 17.0001C27.3675 15.8772 27.989 14.3629 27.989 12.7851C27.989 11.2073 27.3675 9.69299 26.2591 8.5701L25.9991 8.2501ZM25.2791 15.9501L16.9991 24.3701L8.73912 15.9501C7.91739 15.1014 7.45795 13.9664 7.45795 12.7851C7.45795 11.6038 7.91739 10.4688 8.73912 9.6201L9.05912 9.3001C9.46179 8.8852 9.94366 8.55536 10.4762 8.33012C11.0086 8.10488 11.5809 7.98882 12.1591 7.98882C12.7373 7.98882 13.3096 8.10488 13.8421 8.33012C14.3746 8.55536 14.8564 8.8852 15.2591 9.3001L16.9991 11.1001L18.7391 9.3001C19.1418 8.8852 19.6237 8.55536 20.1562 8.33012C20.6886 8.10488 21.2609 7.98882 21.8391 7.98882C22.4173 7.98882 22.9896 8.10488 23.5221 8.33012C24.0546 8.55536 24.5364 8.8852 24.9391 9.3001L25.2591 9.6201C26.0808 10.4688 26.5403 11.6038 26.5403 12.7851C26.5403 13.9664 26.0808 15.1014 25.2591 15.9501H25.2791Z" fill="#1F1F1F"/>
</svg>
