<svg width="48" height="48" viewBox="0 0 48 48" fill="none" xmlns="http://www.w3.org/2000/svg">
<circle cx="24" cy="24" r="24" fill="black"/>
<path d="M31 33.75H17C16.2044 33.75 15.4413 33.4339 14.8787 32.8713C14.3161 32.3087 14 31.5456 14 30.75V21.75C14 20.9544 14.3161 20.1913 14.8787 19.6287C15.4413 19.0661 16.2044 18.75 17 18.75H31C31.7956 18.75 32.5587 19.0661 33.1213 19.6287C33.6839 20.1913 34 20.9544 34 21.75V30.75C34 31.5456 33.6839 32.3087 33.1213 32.8713C32.5587 33.4339 31.7956 33.75 31 33.75ZM17 20.25C16.6022 20.25 16.2206 20.408 15.9393 20.6893C15.658 20.9706 15.5 21.3522 15.5 21.75V30.75C15.5 31.1478 15.658 31.5294 15.9393 31.8107C16.2206 32.092 16.6022 32.25 17 32.25H31C31.3978 32.25 31.7794 32.092 32.0607 31.8107C32.342 31.5294 32.5 31.1478 32.5 30.75V21.75C32.5 21.3522 32.342 20.9706 32.0607 20.6893C31.7794 20.408 31.3978 20.25 31 20.25H17Z" fill="white"/>
<path d="M19.25 22.75C19.25 22.9489 19.329 23.1397 19.4697 23.2803C19.6103 23.421 19.8011 23.5 20 23.5C20.1989 23.5 20.3897 23.421 20.5303 23.2803C20.671 23.1397 20.75 22.9489 20.75 22.75H19.25ZM27.25 22.75C27.25 22.9489 27.329 23.1397 27.4697 23.2803C27.6103 23.421 27.8011 23.5 28 23.5C28.1989 23.5 28.3897 23.421 28.5303 23.2803C28.671 23.1397 28.75 22.9489 28.75 22.75H27.25ZM20.75 22.75V18.75H19.25V22.75H20.75ZM27.25 18.75V22.75H28.75V18.75H27.25ZM24 15.5C24.8611 15.5026 25.6863 15.8459 26.2952 16.4548C26.9041 17.0637 27.2474 17.8889 27.25 18.75H28.75C28.75 17.4902 28.2496 16.282 27.3588 15.3912C26.468 14.5004 25.2598 14 24 14V15.5ZM24 14C22.7402 14 21.532 14.5004 20.6412 15.3912C19.7504 16.282 19.25 17.4902 19.25 18.75H20.75C20.7526 17.8889 21.0959 17.0637 21.7048 16.4548C22.3137 15.8459 23.1389 15.5026 24 15.5V14Z" fill="white"/>
</svg>
