<svg width="34" height="28" viewBox="0 0 34 28" fill="none" xmlns="http://www.w3.org/2000/svg">
<path d="M25.9991 7.7501C25.4581 7.19519 24.8123 6.7533 24.0991 6.4501C23.3839 6.14887 22.6151 5.99578 21.8391 6.0001C21.0687 5.99715 20.306 6.15377 19.5991 6.4601C18.8901 6.76102 18.2477 7.19947 17.7091 7.7501L16.9991 8.4801L16.2991 7.7501C15.7632 7.18923 15.1191 6.74282 14.4058 6.43783C13.6926 6.13283 12.9249 5.97559 12.1491 5.97559C11.3734 5.97559 10.6057 6.13283 9.89238 6.43783C9.1791 6.74282 8.53505 7.18923 7.99912 7.7501L7.67912 8.0701C6.57071 9.19299 5.94922 10.7073 5.94922 12.2851C5.94922 13.8629 6.57071 15.3772 7.67912 16.5001L15.9991 25.0001L16.9991 26.0001L17.8791 25.0501L26.2591 16.5001C27.3675 15.3772 27.989 13.8629 27.989 12.2851C27.989 10.7073 27.3675 9.19299 26.2591 8.0701L25.9991 7.7501ZM25.2791 15.4501L16.9991 23.8701L8.73912 15.4501C7.91739 14.6014 7.45795 13.4664 7.45795 12.2851C7.45795 11.1038 7.91739 9.96878 8.73912 9.1201L9.05912 8.8001C9.46179 8.3852 9.94366 8.05536 10.4762 7.83012C11.0086 7.60488 11.5809 7.48882 12.1591 7.48882C12.7373 7.48882 13.3096 7.60488 13.8421 7.83012C14.3746 8.05536 14.8564 8.3852 15.2591 8.8001L16.9991 10.6001L18.7391 8.8001C19.1418 8.3852 19.6237 8.05536 20.1562 7.83012C20.6886 7.60488 21.2609 7.48882 21.8391 7.48882C22.4173 7.48882 22.9896 7.60488 23.5221 7.83012C24.0546 8.05536 24.5364 8.3852 24.9391 8.8001L25.2591 9.1201C26.0808 9.96878 26.5403 11.1038 26.5403 12.2851C26.5403 13.4664 26.0808 14.6014 25.2591 15.4501H25.2791Z" fill="#B8B8B8"/>
</svg>
